<svg id="visual" viewBox="0 0 900 600" width="900" height="600" xmlns="http://www.w3.org/2000/svg" xmlns:xlink="http://www.w3.org/1999/xlink" version="1.1"><rect width="900" height="600" fill="#101010"></rect><g><g transform="translate(597 372)"><path d="M0 -158.7L137.4 -79.3L137.4 79.3L0 158.7L-137.4 79.3L-137.4 -79.3Z" fill="none" stroke="#77731d" stroke-width="2"></path></g><g transform="translate(898 581)"><path d="M0 -98L84.9 -49L84.9 49L0 98L-84.9 49L-84.9 -49Z" fill="none" stroke="#77731d" stroke-width="2"></path></g><g transform="translate(88 83)"><path d="M0 -136L117.8 -68L117.8 68L0 136L-117.8 68L-117.8 -68Z" fill="none" stroke="#77731d" stroke-width="2"></path></g><g transform="translate(218 412)"><path d="M0 -143L123.8 -71.5L123.8 71.5L0 143L-123.8 71.5L-123.8 -71.5Z" fill="none" stroke="#77731d" stroke-width="2"></path></g><g transform="translate(857 11)"><path d="M0 -91L78.8 -45.5L78.8 45.5L0 91L-78.8 45.5L-78.8 -45.5Z" fill="none" stroke="#77731d" stroke-width="2"></path></g></g></svg>