<svg id="visual" viewBox="0 0 900 600" width="900" height="600" xmlns="http://www.w3.org/2000/svg" xmlns:xlink="http://www.w3.org/1999/xlink" version="1.1"><rect width="900" height="600" fill="#000000"></rect><g><g transform="translate(289 281)"><path d="M0 -91.7L79.4 45.8L-79.4 45.8Z" fill="none" stroke="#e2ff00" stroke-width="3"></path></g><g transform="translate(161 78)"><path d="M0 -55L47.6 27.5L-47.6 27.5Z" fill="none" stroke="#e2ff00" stroke-width="3"></path></g><g transform="translate(657 117)"><path d="M0 -66L57.2 33L-57.2 33Z" fill="none" stroke="#e2ff00" stroke-width="3"></path></g><g transform="translate(701 367)"><path d="M0 -42L36.4 21L-36.4 21Z" fill="none" stroke="#e2ff00" stroke-width="3"></path></g><g transform="translate(340 565)"><path d="M0 -44L38.1 22L-38.1 22Z" fill="none" stroke="#e2ff00" stroke-width="3"></path></g><g transform="translate(63 396)"><path d="M0 -71L61.5 35.5L-61.5 35.5Z" fill="none" stroke="#e2ff00" stroke-width="3"></path></g><g transform="translate(868 513)"><path d="M0 -75L65 37.5L-65 37.5Z" fill="none" stroke="#e2ff00" stroke-width="3"></path></g><g transform="translate(426 55)"><path d="M0 -39L33.8 19.5L-33.8 19.5Z" fill="none" stroke="#e2ff00" stroke-width="3"></path></g><g transform="translate(576 520)"><path d="M0 -81L70.1 40.5L-70.1 40.5Z" stroke="#e2ff00" fill="none" stroke-width="3"></path></g><g transform="translate(869 287)"><path d="M0 -54L46.8 27L-46.8 27Z" stroke="#e2ff00" fill="none" stroke-width="3"></path></g><g transform="translate(834 19)"><path d="M0 -68L58.9 34L-58.9 34Z" stroke="#e2ff00" fill="none" stroke-width="3"></path></g><g transform="translate(3 174)"><path d="M0 -60L52 30L-52 30Z" stroke="#e2ff00" fill="none" stroke-width="3"></path></g></g></svg>