<svg id="visual" viewBox="0 0 900 600" width="900" height="600" xmlns="http://www.w3.org/2000/svg" xmlns:xlink="http://www.w3.org/1999/xlink" version="1.1"><rect width="900" height="600" fill="#000000"></rect><g><g transform="translate(292 548)"><path d="M0 -100.4L100.4 0L0 100.4L-100.4 0Z" fill="none" stroke="#e3f743" stroke-width="2"></path></g><g transform="translate(427 146)"><path d="M0 -93L93 0L0 93L-93 0Z" fill="none" stroke="#e3f743" stroke-width="2"></path></g><g transform="translate(72 478)"><path d="M0 -70L70 0L0 70L-70 0Z" fill="none" stroke="#e3f743" stroke-width="2"></path></g><g transform="translate(480 427)"><path d="M0 -95L95 0L0 95L-95 0Z" stroke="#e3f743" fill="none" stroke-width="2"></path></g><g transform="translate(724 240)"><path d="M0 -93L93 0L0 93L-93 0Z" stroke="#e3f743" fill="none" stroke-width="2"></path></g><g transform="translate(26 118)"><path d="M0 -95L95 0L0 95L-95 0Z" stroke="#e3f743" fill="none" stroke-width="2"></path></g><g transform="translate(189 253)"><path d="M0 -76L76 0L0 76L-76 0Z" stroke="#e3f743" fill="none" stroke-width="2"></path></g><g transform="translate(738 491)"><path d="M0 -62L62 0L0 62L-62 0Z" stroke="#e3f743" fill="none" stroke-width="2"></path></g><g transform="translate(840 6)"><path d="M0 -66L66 0L0 66L-66 0Z" stroke="#e3f743" fill="none" stroke-width="2"></path></g><g transform="translate(607 1)"><path d="M0 -97L97 0L0 97L-97 0Z" stroke="#e3f743" fill="none" stroke-width="2"></path></g><g transform="translate(226 34)"><path d="M0 -74L74 0L0 74L-74 0Z" stroke="#e3f743" fill="none" stroke-width="2"></path></g></g></svg>