<svg id="visual" viewBox="0 0 900 600" width="900" height="600" xmlns="http://www.w3.org/2000/svg" xmlns:xlink="http://www.w3.org/1999/xlink" version="1.1"><rect width="900" height="600" fill="#000000"></rect><g><g transform="translate(356 521)"><path d="M0 -141.2L122.3 -70.6L122.3 70.6L0 141.2L-122.3 70.6L-122.3 -70.6Z" fill="none" stroke="#c3cd1d" stroke-width="2"></path></g><g transform="translate(748 275)"><path d="M0 -128L110.9 -64L110.9 64L0 128L-110.9 64L-110.9 -64Z" fill="none" stroke="#c3cd1d" stroke-width="2"></path></g><g transform="translate(84 349)"><path d="M0 -128L110.9 -64L110.9 64L0 128L-110.9 64L-110.9 -64Z" fill="none" stroke="#c3cd1d" stroke-width="2"></path></g><g transform="translate(326 56)"><path d="M0 -139L120.4 -69.5L120.4 69.5L0 139L-120.4 69.5L-120.4 -69.5Z" stroke="#c3cd1d" fill="none" stroke-width="2"></path></g><g transform="translate(30 64)"><path d="M0 -126L109.1 -63L109.1 63L0 126L-109.1 63L-109.1 -63Z" stroke="#c3cd1d" fill="none" stroke-width="2"></path></g><g transform="translate(636 7)"><path d="M0 -136L117.8 -68L117.8 68L0 136L-117.8 68L-117.8 -68Z" stroke="#c3cd1d" fill="none" stroke-width="2"></path></g><g transform="translate(826 579)"><path d="M0 -128L110.9 -64L110.9 64L0 128L-110.9 64L-110.9 -64Z" stroke="#c3cd1d" fill="none" stroke-width="2"></path></g></g></svg>